<?xml version="1.0" encoding="UTF-8"?> <svg xmlns="http://www.w3.org/2000/svg" xmlns:xlink="http://www.w3.org/1999/xlink" width="104px" height="55px" viewBox="0 0 104 55" version="1.1"><title>0985C510-06DC-4013-BED0-1C6D9A8F6E6B@1x</title><g id="DT" stroke="none" stroke-width="1" fill="none" fill-rule="evenodd"><g id="About--brands" transform="translate(-1277.000000, -1116.000000)" fill="#1B5E87"><g id="Logo-02" transform="translate(1224.000000, 1038.000000)"><g id="Logo" transform="translate(53.172141, 78.948905)"><path d="M83.2277154,10.0532522 C82.2401416,9.76835871 80.2240448,9.65848394 79.3558854,9.87097639 C79.1771666,9.9674404 78.8216367,10.5181298 78.9115048,10.9438362 C79.4391829,11.4962656 79.7714828,11.9867764 79.7730513,12.2075445 C79.6227342,12.9042243 78.5689887,14.5433487 77.9440665,15.3921302 C77.9478393,15.9163376 78.0810306,16.5122671 78.4484723,16.5099398 C79.242109,16.5048827 84.3266916,12.9777712 84.5248677,11.5854725 C84.5953632,11.0901661 83.8904924,10.2444827 83.2277154,10.0532522" id="Fill-2"></path><path d="M78.071836,15.4330669 C78.081713,15.8985811 78.2009578,16.3826412 78.4464841,16.3826412 L78.4476287,16.3826412 C78.7667027,16.3806041 80.1228627,15.6101227 81.6332821,14.4663897 C83.2600637,13.2345107 84.3197862,12.1237103 84.3989718,11.5675038 C84.4565807,11.1625078 83.8309802,10.3598151 83.192493,10.1755871 C82.205428,9.89086334 80.235325,9.79541786 79.4045116,9.99021321 C79.278442,10.0759401 78.9781894,10.5246909 79.0299483,10.8838104 C79.2652585,11.1328428 79.8975567,11.8364827 79.9002273,12.2066363 L79.9003121,12.2206836 L79.8973447,12.2343914 C79.7340985,12.9910801 78.6145205,14.6905104 78.071836,15.4330669 L78.071836,15.4330669 Z M78.446145,16.6372756 C77.9888776,16.6372756 77.8212652,15.9950876 77.816899,15.3930469 L77.8166022,15.3506927 L77.8416975,15.3166141 C78.4815836,14.4474618 79.4910309,12.8630839 79.6452902,12.1961538 C79.6311742,12.034758 79.3711078,11.6092214 78.8196062,11.0318378 L78.7945533,11.0056529 L78.7870502,10.9701739 C78.6862877,10.4927767 79.0667434,9.88237552 79.2955254,9.75887782 L79.3098534,9.75115391 L79.3257075,9.74729195 C80.1935702,9.53484195 82.2173397,9.62926889 83.2629462,9.93092582 C83.978118,10.1372646 84.7303815,11.0438481 84.6507296,11.6034497 C84.5215654,12.5110518 82.6047898,14.0499775 81.7866937,14.6694606 C80.529982,15.6211144 78.933213,16.6341776 78.4492819,16.6372756 L78.446145,16.6372756 Z" id="Fill-4"></path><path d="M77.4599447,10.950045 C77.2019131,10.6401973 76.8191261,10.518864 76.3931429,10.4649664 C75.86538,10.3982097 75.332615,10.4123844 74.8018847,10.4635659 C73.3023173,10.6081558 71.8414101,10.9233084 70.3913974,11.2918918 C68.9443519,11.6597537 67.5195616,12.0851629 66.1111763,12.5521201 C62.7894491,13.6534989 59.5600062,14.9344799 56.4155989,16.3760928 C52.3589883,18.2359004 48.4656238,20.3124018 44.8891715,22.8071404 C44.8464418,22.836975 44.7947676,22.8575155 44.7145646,22.8994878 C44.7162603,22.7955545 44.7118516,22.7223471 44.7194395,22.6497338 C45.193536,18.1331978 45.9813229,13.6497218 47.1765681,9.21004298 C47.2639776,8.88538406 47.1455806,8.65566136 46.875171,8.46112064 C46.6167155,8.27515262 46.3055261,8.14787783 45.9732263,8.13166611 C45.5304989,8.11006462 45.2674652,7.9522337 45.097818,7.61344257 C44.9839569,7.38609645 44.7726821,7.20343868 44.5135908,7.07455121 C44.2809936,6.95881986 44.0505159,6.94719155 43.8333913,7.11864541 C43.5479754,7.34403933 43.2391175,7.55266982 42.9847315,7.80089596 C42.334926,8.43506305 41.6836793,9.07041843 41.0792742,9.73497189 C38.7909025,12.2510573 36.7138904,14.8886882 34.7263225,17.5758455 C33.5098395,19.2205293 32.3227756,20.8797698 31.3098523,22.6201538 C31.2893352,22.6554631 31.2617813,22.6880139 31.2375339,22.7218378 C31.2124387,22.6399304 31.221595,22.5680386 31.2428327,22.498481 C32.0310859,19.9169545 32.7934384,17.3300383 33.6171725,14.755769 C34.4575237,12.1295966 35.4749828,9.54675459 36.7291086,7.02922628 C37.0777289,6.32949083 37.3906139,5.61485926 37.8634386,4.96167947 C38.7604661,3.72250094 39.6559675,2.48255852 40.5610491,1.24749658 C40.5040761,1.16872966 40.4453652,1.09110859 40.383814,1.0155246 C40.2314622,0.864101988 40.0680465,0.727448169 39.8933972,0.602762169 C39.6486339,0.463434689 39.3928914,0.348212603 39.1277806,0.253191516 C38.6588558,0.126171367 38.1781464,0.0578020189 37.6927741,0.0301741817 C37.6874753,0.0301741817 37.6822188,0.0301741817 37.67692,0.0301741817 C37.4334708,0.217033425 37.1770925,0.389972652 36.9062166,0.550986499 C36.4069825,0.847762944 35.9200841,1.16028429 35.4360259,1.47518222 C32.6133208,3.31147851 29.9624671,5.31702184 27.401312,7.40914087 C21.8004119,11.9843277 16.6427479,16.8927461 11.9237418,22.1285396 C9.28975965,25.0509367 6.82457684,28.0689914 4.62984605,31.2378322 C3.06944815,33.4908802 1.66029991,35.8045736 0.53228611,38.2316218 C0.407700144,38.499667 0.359925941,38.7613039 0.390489562,39.0400013 C0.443308246,39.521218 0.490234638,40.0030712 0.533430656,40.4851791 C0.54216312,40.5828739 0.523341694,40.6830301 0.517195058,40.7820404 C0.562637778,41.079411 0.608080499,41.3767816 0.653523219,41.6741522 C0.701636547,41.8250656 0.758524729,41.974154 0.79616758,42.1271469 C0.908121148,42.5821786 1.01693781,43.0379319 1.11876003,43.4949158 C1.24025148,44.0400457 1.66174119,44.3212046 2.27288644,44.4103266 C2.70989111,44.4740277 2.630112,44.4842979 2.81603716,44.1825561 C2.84376061,44.1375707 2.86978844,44.0918638 2.89674886,44.0465389 C7.41914737,36.4499022 12.4727424,29.1093429 18.176143,22.0823234 C21.8035488,17.6131918 25.6728778,13.2983687 29.8567026,9.18474929 C31.7470689,7.3260876 33.7000461,5.51572158 35.7330144,3.76744392 C35.8125815,3.69903214 35.8962182,3.63401548 35.9779897,3.56742857 C35.9938013,3.57820809 36.009613,3.58898762 36.0254671,3.59976714 C35.9848145,3.68235358 35.9453913,3.76540685 35.9033822,3.84752646 C35.4116937,4.80881392 34.9051684,5.76517846 34.4301818,6.73198301 C32.4181544,10.8276507 30.6253289,14.9872317 29.0176231,19.1999039 C28.1943553,21.3572094 27.4120792,23.5243183 26.8114892,25.7299618 C26.6222152,26.4250714 26.4882185,27.1299845 26.3465916,27.8325633 C26.3161975,27.9833918 26.3315429,28.1511959 26.3784693,28.2979078 C26.6009351,28.9933144 27.026452,29.6032913 27.463711,30.2100003 C27.7195382,30.5649607 28.1007569,30.6668993 28.5568373,30.6710584 C28.7856618,30.6732227 28.9524688,30.6103705 29.027161,30.4010185 C29.075571,30.2653408 29.1649304,30.1389572 29.2380118,30.0092634 C30.4129944,27.9232981 31.7320626,25.9006094 33.134386,23.9150548 C35.4019862,20.7043691 37.8616159,17.6030913 40.6673647,14.7005982 C41.5690127,13.7679147 42.5091514,12.8637926 43.5029142,11.9999453 C43.5737913,11.9383237 43.6518323,11.8826861 43.766287,11.7931821 C43.7675587,11.8837895 43.7713314,11.9156613 43.7679402,11.9471511 C43.5529351,13.939411 43.3639154,15.9333684 43.1152098,17.9234639 C42.7903706,20.5227299 42.3353076,23.1107071 41.7641367,25.6861223 C41.7263666,25.8563878 41.7588378,25.9961397 41.8695197,26.132454 C42.0653642,26.373508 42.3018614,26.5778521 42.6016053,26.7251581 C42.896008,26.8697905 43.0279275,26.8520085 43.2940133,26.6665073 C43.8118145,26.3055206 44.3241896,25.9381255 44.8558101,25.5924592 C46.9556707,24.2271093 49.1974975,23.0524382 51.5055807,21.9686716 C55.0204819,20.318216 58.6556876,18.8966768 62.3988198,17.6875451 C63.7373029,17.2551758 65.0909194,16.8536597 66.455176,16.4897447 C67.6014602,16.1839287 68.7712287,15.9463548 69.93413,15.6912111 C70.8697753,15.4859333 71.8210627,15.36982 72.7806162,15.3225853 C72.9641675,15.3135457 73.148397,15.3256833 73.3585696,15.328357 C73.3567468,15.4445127 73.3681499,15.535205 73.35166,15.6227993 C73.2893882,15.9540362 73.2341108,16.2869708 73.1451754,16.6140063 C73.0720092,16.8829851 73.1669641,17.1105859 73.3041401,17.3299959 C73.4139317,17.5055239 73.5431807,17.5177039 73.7324547,17.378334 C73.8830261,17.2674831 74.0266878,17.1464469 74.1532238,17.0160316 C75.3830174,15.7484614 76.3869963,14.3676212 77.1024648,12.8488116 C77.263761,12.5063283 77.353078,12.1407157 77.4678718,11.784185 C77.5033951,11.6740132 77.5138232,11.5586638 77.5356967,11.4456485 L77.4599447,10.950045 Z" id="Fill-6"></path><path d="M37.6122659,0.091550365 C37.6094681,0.0910948905 37.6067127,0.0903357664 37.6039149,0.089880292 C37.5282477,0.0801635036 37.4525805,0.070750365 37.3769133,0.0602744526 C37.4553783,0.070750365 37.5338009,0.0812262774 37.6122659,0.091550365" id="Fill-8"></path><path d="M77.8232067,10.8047209 L77.760511,10.7295189 C77.3826412,10.2758027 76.8282146,10.1587133 76.4441134,10.1101206 C75.9394957,10.0462498 75.4052894,10.045401 74.7628599,10.107362 C73.090678,10.2684183 71.4950111,10.6403544 70.2916692,10.9462552 C68.8997316,11.3001122 67.4907105,11.7149542 65.9841063,12.2145045 C62.7224465,13.2959794 59.4467555,14.5878673 56.2481306,16.054307 C51.9249255,18.0363816 48.2883633,20.0440893 45.1534091,22.1806845 C45.6493367,17.6879143 46.4538678,13.3562853 47.5464855,9.29775182 C47.6669171,8.85031666 47.5191435,8.47324548 47.1073189,8.17693587 C46.7674311,7.93235948 46.3821005,7.79307444 45.9929972,7.77406174 C45.6541692,7.7575105 45.5383581,7.65132794 45.4431064,7.46111601 C45.2993599,7.17414299 45.0397599,6.93105197 44.6922841,6.75815518 C44.298645,6.56225642 43.9064048,6.59298231 43.5877547,6.84464602 C43.5056865,6.90945048 43.4223466,6.97230275 43.334047,7.03880478 C43.1231114,7.19778155 42.9049694,7.36214808 42.7097183,7.55269953 L42.7062422,7.55609465 C42.0639823,8.18287734 41.3998064,8.83104932 40.7891275,9.50247791 C38.7589146,11.7346459 36.732856,14.2351561 34.4129457,17.3716583 C33.6278295,18.4331445 32.927664,19.4040656 32.2891768,20.3561438 C32.2950267,20.3367491 32.300919,20.317312 32.3067689,20.2979598 C32.8461893,18.5127602 33.4040495,16.6667878 33.982554,14.8587983 C34.8680512,12.0915585 35.8794909,9.58009898 37.0747361,7.18093324 C37.1395514,7.05081504 37.2031373,6.92023001 37.2667232,6.78960254 C37.5468826,6.21417113 37.8114847,5.67061147 38.1790112,5.16291283 L38.6461556,4.51732963 C39.3447526,3.55167094 40.0626374,2.55961514 40.782345,1.57655643 C40.6610655,1.3816762 40.5291035,1.19401062 40.383831,1.01551187 C40.361364,0.99314648 40.3387698,0.970908405 40.3157941,0.949179599 C39.5406396,2.00616718 38.7666297,3.07592892 38.0149172,4.11500721 L37.5478576,4.76042065 C37.1442143,5.31802764 36.8536692,5.91484834 36.5727043,6.49193487 C36.510051,6.62069502 36.4473977,6.74937029 36.3835151,6.87757874 C35.1724581,9.30861622 34.1480469,11.8519051 33.2517825,14.6527991 C32.67154,16.4660934 32.1129167,18.3147394 31.5726909,20.1025279 C31.3450958,20.8556941 31.1097432,21.634536 30.8761286,22.3997974 C30.8310674,22.5474429 30.8293294,22.6851153 30.8708722,22.8207506 L31.0968989,23.558851 L31.5539543,22.9218829 C31.5599314,22.9136073 31.5661204,22.905459 31.5723094,22.8972682 C31.5935047,22.8693009 31.6198717,22.8345008 31.6447126,22.7918496 C32.600239,21.1500091 33.6929414,19.600898 35.0397331,17.7800496 C37.3448066,14.6635786 39.3561557,12.1810625 41.3694548,9.9674404 C41.9654242,9.3121811 42.6216306,8.67181791 43.2562179,8.0525045 L43.2596939,8.04915182 C43.4209477,7.89178773 43.6107728,7.74872561 43.811789,7.59721812 C43.8995376,7.53109804 43.9902534,7.46272869 44.0790194,7.39261934 C44.128362,7.35366027 44.1793155,7.31347047 44.3349314,7.39087934 C44.5351846,7.49056872 44.6796517,7.62022009 44.7525212,7.76578612 C44.9821934,8.22438275 45.3750271,8.46102303 45.9534044,8.48928745 C46.2494179,8.50371674 46.4918074,8.63646616 46.6430994,8.74532239 C46.830805,8.88036352 46.8454721,8.97822803 46.8066847,9.12230868 C45.6639614,13.3668951 44.8339959,17.9063482 44.3398063,22.614624 C44.3328543,22.6806592 44.3331086,22.7405832 44.3333629,22.8039871 C44.3334901,22.8314452 44.3336597,22.8610253 44.3331086,22.8940429 L44.3229772,23.5146719 L44.9004644,23.2122086 C44.9253476,23.1991798 44.9471364,23.1885276 44.9665089,23.1790212 C45.0148766,23.1552554 45.0649399,23.1306407 45.1167836,23.094525 C48.324692,20.85684 52.0753273,18.7644663 56.5830163,16.6978107 C59.7554862,15.2433388 63.0040049,13.9621031 66.2382803,12.8897526 C67.726699,12.3962286 69.1178312,11.9866491 70.4911594,11.6375453 C71.6666507,11.3387318 73.2235725,10.9758777 74.8408586,10.8197443 C75.4218217,10.7637248 75.8988431,10.7637672 76.342164,10.8198292 C76.6996863,10.8650693 76.9378367,10.9543611 77.0983275,11.1056139 L77.1495777,11.4411797 C77.1463136,11.4605743 77.1431767,11.4800114 77.1400822,11.4994061 C77.1292726,11.5664598 77.1190989,11.6297789 77.1027361,11.6805785 C77.0714942,11.7776791 77.0419904,11.8755012 77.0134615,11.9700979 C76.9353356,12.2297401 76.8614912,12.4749107 76.7535648,12.7039968 C76.0851498,14.1228199 75.1153801,15.4924561 73.8710889,16.774965 C73.7852903,16.8634504 73.6846127,16.9525725 73.5710059,17.040676 C73.5013581,16.9055076 73.4863942,16.8071338 73.5148807,16.7025639 C73.5920316,16.4188587 73.6446383,16.1332013 73.6955071,15.8569654 C73.7060623,15.7996302 73.7166176,15.742295 73.7274696,15.6848749 C73.7449345,15.5916363 73.7429421,15.5087527 73.7410346,15.4285853 C73.7403563,15.3989204 73.7395085,15.3675579 73.7400172,15.3336916 L73.7456975,14.9752511 L73.3638006,14.9703282 C73.2976289,14.9695219 73.2341702,14.9676546 73.1725766,14.9659146 C73.0325605,14.9619253 72.9003442,14.9581482 72.7606248,14.9650233 C71.7404103,15.0152288 70.7601701,15.1422489 69.8472886,15.3425613 C69.6080785,15.395016 69.3686988,15.4467493 69.1291495,15.4984825 C68.215293,15.6958666 67.2702794,15.900041 66.3508697,16.1452964 C65.0174311,16.5010207 63.6460105,16.9060168 62.2746747,17.3489534 C58.4827085,18.57383 54.8020601,20.0203658 51.3349332,21.6484136 C48.6751351,22.8973107 46.5473391,24.0570432 44.6385329,25.2981315 C44.220392,25.5700387 43.8099662,25.8579878 43.4130207,26.1364306 C43.2976335,26.2174043 43.1822039,26.2983781 43.0665199,26.3790123 C42.9601195,26.4532382 42.9257408,26.4623202 42.9226039,26.4632114 C42.9191278,26.4630841 42.8856816,26.4605802 42.7785606,26.4079133 C42.5483797,26.2948556 42.3502884,26.1337145 42.1729261,25.9153654 C42.1297725,25.8622317 42.122227,25.8286624 42.1376572,25.7590623 C42.7190866,23.1373885 43.1754638,20.515163 43.4941139,17.9652112 C43.6678306,16.5753316 43.814714,15.1620255 43.9567649,13.7952751 C44.0184856,13.201213 44.0823682,12.5869498 44.1475226,11.9832964 C44.1521855,11.9403905 44.1509986,11.9049115 44.1496421,11.8638729 C44.1490486,11.8446904 44.1482432,11.8206275 44.1478193,11.7885435 L44.137476,11.0368626 L43.5221341,11.5180369 C43.483813,11.5479564 43.4497309,11.5739716 43.4187434,11.597695 C43.3544793,11.6467121 43.2990324,11.6890663 43.2436702,11.7372347 C42.2882286,12.5677249 41.3531344,13.4583513 40.384806,14.4599983 C37.8110608,17.1224561 35.3354075,20.1505265 32.8164311,23.7171911 C31.2686232,25.9086176 29.9878337,27.912039 28.9007268,29.8419134 C28.8817782,29.8755252 28.8616427,29.9088399 28.8415071,29.942197 C28.780719,30.0429898 28.7118343,30.1572782 28.6654166,30.287354 C28.6625764,30.2953325 28.660033,30.3008496 28.6581678,30.3044569 C28.6464256,30.3076823 28.6175152,30.3135389 28.560627,30.3130296 C28.1587218,30.309295 27.9324832,30.2213188 27.7797074,30.0094205 C27.3316812,29.3877305 26.9445279,28.8221025 26.7438508,28.1948954 C26.7123546,28.0964368 26.7040036,27.985883 26.7214686,27.8990951 L26.7736514,27.6391133 C26.8938711,27.0382609 27.0182027,26.4169953 27.1811522,25.8186468 C27.8046331,23.5287617 28.6409572,21.2488922 29.3768156,19.3206728 C31.0188154,15.0180297 32.8355916,10.8330278 34.7766571,6.88190752 C35.0979354,6.22792139 35.4401971,5.56625379 35.7712253,4.92635743 C35.930402,4.61854682 36.0896211,4.31077866 36.2473141,4.00250122 C36.2771147,3.94418994 36.3057707,3.88541182 36.3342996,3.82667614 L36.5031413,3.48279232 L35.9566417,3.11068652 L35.7278597,3.2970365 C35.7025525,3.31766189 35.6770758,3.33811752 35.6515566,3.35857315 C35.5939478,3.4047893 35.5343466,3.45261814 35.4752965,3.50341771 C33.5287203,5.17738455 31.5455186,7.00565986 29.5807568,8.93748652 C25.5320732,12.9182292 21.7023794,17.1469434 17.8726857,21.8653621 C12.3753882,28.6383837 7.22467626,36.0424319 2.56378767,43.8718469 C2.55352915,43.8889923 2.54344018,43.9062226 2.53335122,43.9234529 C2.5176667,43.9502319 2.50198218,43.977011 2.48578897,44.0033232 C2.47023162,44.0285744 2.4563699,44.0518311 2.44386467,44.0731355 C2.43233443,44.0714379 2.42080419,44.0697403 2.40944351,44.0680428 L2.3314872,44.0564569 C1.69223699,43.9632607 1.54717636,43.6682243 1.49215337,43.4216108 C1.40025055,43.0089757 1.29719901,42.5720654 1.1678653,42.0465424 C1.13861578,41.9275432 1.10076098,41.8156314 1.06417789,41.7074966 C1.05167267,41.6704897 1.03916744,41.6335253 1.02708612,41.596476 L0.900677359,40.769296 C0.902076249,40.7536784 0.903687091,40.7380608 0.905297934,40.7224008 C0.913352148,40.643549 0.922466126,40.5542148 0.913564101,40.4552468 C0.866552928,39.9296813 0.819584146,39.4547881 0.770029537,39.0033212 C0.746545146,38.7893859 0.782110858,38.5896676 0.881983106,38.3747561 C1.89800095,36.1887618 3.22855702,33.9181016 4.94970006,31.4329968 C6.98711935,28.4913323 9.36362103,25.5234406 12.2150246,22.3598198 C16.9104615,17.1502113 22.1041575,12.2109396 27.651815,7.67925285 C30.5015229,5.35138475 33.1188456,3.41828493 35.6533794,1.76948446 C36.115013,1.46914314 36.6110254,1.15034081 37.1103442,0.853564365 C37.5124615,0.614505061 37.8711283,0.359531104 38.2058445,0.0756136983 C38.0356038,0.0547761129 37.864473,0.0400073151 37.6927487,0.0301998426 C37.4576928,0.0291853513 37.2239087,0.0464156153 36.9904212,0.0686536902 C36.89695,0.129723518 36.8011048,0.18964749 36.7021228,0.248468047 C36.190977,0.552289378 35.6870799,0.876141953 35.2187062,1.18089694 C32.6609424,2.84480572 30.0219581,4.79373532 27.1508429,7.13904587 C21.5740631,11.694541 16.352898,16.6599551 11.6324506,21.8972763 C8.76019087,25.0841113 6.36499494,28.0755992 4.30998356,31.0426846 C2.56565286,33.5612314 1.21559711,35.8658854 0.182580637,38.0884197 C0.0301440483,38.4164737 -0.0259811028,38.7396897 0.0109834982,39.076656 C0.0600718101,39.5236667 0.106574296,39.9941887 0.153246343,40.5152557 C0.156383248,40.5500557 0.151211595,40.6005582 0.145743208,40.6540739 C0.142097616,40.6898925 0.138536806,40.7256686 0.136332495,40.761275 L0.134128184,40.7972209 L0.279909449,41.7512937 L0.288048444,41.7767572 C0.303732965,41.8259865 0.320307688,41.8751309 0.336882412,41.9241905 C0.370370984,42.0232433 0.402079151,42.116779 0.424418996,42.2077684 C0.552523382,42.7282836 0.654515159,43.1605681 0.745315819,43.5682378 C0.848494533,44.0311208 1.18706824,44.614361 2.21431959,44.7641709 L2.28964768,44.7753324 C2.44093972,44.79791 2.56281269,44.8100051 2.66743268,44.7959153 C2.83568096,44.7732953 2.95937673,44.6828152 3.08875283,44.4589491 C3.1046917,44.4314486 3.12325878,44.3992373 3.14640404,44.3616787 C3.16539503,44.330868 3.18362299,44.2997601 3.20189334,44.2686523 L3.22982874,44.2212054 C7.87333718,36.4211582 13.0040832,29.0455866 18.4796766,22.2993441 C22.2920326,17.6022723 26.1037528,13.3933347 30.1326399,9.43198661 C31.7161831,7.8750243 33.3114685,6.38600694 34.8893313,4.99175604 C34.6188793,5.51558153 34.3449936,6.05022899 34.0837404,6.58203303 C32.133349,10.552166 30.3080098,14.7568172 28.6584645,19.0791945 C27.9166291,21.0230314 27.0731833,23.3227624 26.4418602,25.6412939 C26.2728489,26.2620502 26.1461858,26.8949017 26.0237193,27.5069156 L25.9717485,27.7660061 C25.931435,27.9660215 25.9461021,28.1915003 26.0130793,28.4008522 C26.2447015,29.1249053 26.6639445,29.7394655 27.1477484,30.4106819 C27.5415147,30.9570425 28.1383743,31.025327 28.5531239,31.0291465 C29.0905519,31.0341119 29.3042429,30.7521467 29.3889393,30.5147425 C29.4120422,30.4500654 29.4574425,30.3746511 29.5055558,30.2949506 C29.5292946,30.2555671 29.5529909,30.2161836 29.5752884,30.176588 C30.6504835,28.2678906 31.918683,26.2844156 33.4524172,24.1128931 C35.9499016,20.5766997 38.4023673,17.5765966 40.949915,14.941215 C41.7491897,14.114417 42.5249801,13.3649429 43.3082735,12.6632128 C43.2706731,13.0202952 43.2336237,13.3765288 43.1973373,13.7257599 C43.0556256,15.0891152 42.9091236,16.4988139 42.7362972,17.881776 C42.4202329,20.4108478 41.9675013,23.0120235 41.3906501,25.6131143 C41.3304554,25.8843425 41.3895055,26.1321018 41.5661471,26.3495171 C41.8126061,26.652999 42.0934438,26.8796661 42.4246839,27.0424199 C42.8447323,27.2487163 43.1318015,27.225587 43.5214982,26.9539769 C43.637818,26.8729183 43.7538411,26.7915201 43.8698641,26.7100795 C44.2613837,26.4354138 44.6662139,26.1514116 45.0730789,25.8868039 C46.9514062,24.6654923 49.049656,23.5222685 51.6762622,22.2889041 C55.1133767,20.6749461 58.7627832,19.24076 62.522914,18.0261537 C63.8811935,17.5874186 65.2393459,17.1863693 66.5595163,16.8341675 C67.4602741,16.5938774 68.3957074,16.3917826 69.3002803,16.1963931 C69.5405926,16.1444901 69.7809473,16.0925871 70.0209205,16.0399202 C70.8901821,15.8492414 71.8253611,15.7282052 72.8006415,15.6802066 C72.8506201,15.6777027 72.9013616,15.6771086 72.9542227,15.6774481 C72.9507043,15.6966305 72.9471858,15.7157706 72.9436674,15.734953 C72.8930106,16.0096187 72.8451941,16.2690488 72.7755463,16.5253808 C72.663508,16.9370822 72.8233205,17.268489 72.9750788,17.511198 C73.0845738,17.6863441 73.2292529,17.7910413 73.4051738,17.8223189 C73.5882164,17.8549545 73.7774905,17.800293 73.9679514,17.6600743 C74.1454832,17.5293619 74.3027524,17.3937691 74.4352654,17.2571153 C75.7349611,15.9175259 76.749792,14.4830852 77.4513988,12.993601 C77.5810716,12.7183412 77.6658104,12.4369701 77.7477938,12.1648932 C77.7753053,12.0733946 77.8038342,11.978713 77.8331261,11.8878085 C77.8653853,11.7876099 77.8808579,11.6913156 77.8945501,11.6063101 C77.8997641,11.5740564 77.904851,11.5418452 77.9110824,11.5098037 L77.9221887,11.4525109 L77.8232067,10.8047209 Z" id="Fill-10"></path><path d="M18.5103971,33.0765942 L25.3187086,33.0765942 C25.4018789,33.0765942 25.8407064,34.8186333 26.6350214,38.3022871 C26.7862711,38.7794297 27.1190373,40.1426576 27.6335743,42.391971 L27.7243326,42.391971 L29.9483977,33.0765942 L36.8929102,33.0765942 L36.8929102,48.9354396 L32.3086214,48.9354396 L32.3086214,38.8021346 C32.2329118,38.8021346 31.9756432,39.7109249 31.5369853,41.528548 C31.4763668,41.6876096 30.7955314,44.1566725 29.4945216,48.9354396 L25.9087857,48.9354396 C25.8407064,48.9354396 25.5683892,47.9811546 25.0917917,46.0726694 L23.0946859,38.8021346 L23.0492856,38.8021346 L23.0492856,48.9354396 L18.4196388,48.9354396 L18.4196388,33.1674987 C18.4270572,33.1069806 18.4574089,33.0765942 18.5103971,33.0765942" id="Fill-15"></path><path d="M42.7022024,42.3692194 L42.7022024,42.7327525 C42.7022024,43.8460567 43.0047017,44.6034669 43.6099971,45.0048132 C43.935133,45.0956752 44.2074925,45.1410851 44.4269911,45.1410851 L44.6993083,45.1410851 C45.6675519,45.0427962 46.1517373,44.8002993 46.1517373,44.4141037 C46.3332962,44.2550421 46.4391455,43.603772 46.4694972,42.4601239 C46.4694972,41.2786625 45.9852694,40.5970485 45.0170258,40.415282 C44.8732369,40.415282 44.7219872,40.4002161 44.5631497,40.3698722 C43.7461557,40.3698722 43.2014789,40.687953 42.9291617,41.3241147 C42.7777425,41.7103527 42.7022024,42.05882 42.7022024,42.3692194 M43.2468792,37.0526644 C44.4042697,37.0526644 45.4179137,37.4161975 46.2879383,38.1432637 L46.3332962,38.1432637 L46.3332962,37.3480403 L50.8835454,37.3480403 L50.8835454,46.9587506 C50.8835454,49.7684719 49.9114018,51.6465707 47.9673266,52.5933865 C46.9081127,52.9569196 45.8491108,53.1386861 44.7900665,53.1386861 C42.4903342,53.1386861 40.9093769,52.7599174 40.0469402,52.002677 C39.1845882,51.2452668 38.7533911,50.2606379 38.7533911,49.0490023 L43.1107206,49.0490023 C43.2241578,49.7153807 43.5720575,50.0486971 44.1546739,50.0486971 C44.9489465,50.0486971 45.5106219,49.8158339 45.8397001,49.3500651 C46.1687783,48.8843387 46.3332962,48.3901357 46.3332962,47.8675834 L46.3332962,47.3222837 C45.4783627,48.0493499 44.5706104,48.4128406 43.6099971,48.4128406 L43.01992,48.4128406 C41.2270944,48.4128406 39.774623,47.5647381 38.6625904,45.8681513 C38.1480534,44.967 37.8909968,43.9521968 37.8909968,42.823657 L37.8909968,42.6873002 C37.8909968,40.2714984 38.9499987,38.5294593 41.0682145,37.4616073 C41.7944078,37.1889787 42.5206435,37.0526644 43.2468792,37.0526644" id="Fill-17"></path><path d="M60.2105323,37.1662865 L61.5268028,37.4389151 L61.5268028,41.619461 L60.8459674,41.619461 C59.0908695,41.619461 57.9410669,42.1042425 57.3963901,43.073551 C57.0634544,43.5506935 56.8971561,44.3990081 56.8971561,45.6182403 L56.8971561,48.9354056 L52.4944262,48.9354056 L52.4944262,37.3480106 L56.8063554,37.3480106 L56.8063554,39.7109334 L57.4871908,38.5749242 C58.2134265,37.6359173 59.1212212,37.1662865 60.2105323,37.1662865" id="Fill-19"></path><path d="M66.9730323,42.8690795 L66.9730323,43.4598314 C66.9730323,44.8457643 67.4116902,45.6335184 68.2893027,45.8227542 L68.9247378,45.868164 C69.7264712,45.868164 70.2410082,45.5500831 70.4679675,44.9139214 C70.6495264,44.3686218 70.7402847,43.7628464 70.7402847,43.0962983 C70.7402847,41.2786328 70.1198983,40.3698424 68.8793799,40.3698424 L68.7431789,40.3698424 C68.0093128,40.3698424 67.5100788,40.7032014 67.2453495,41.3695373 C67.063833,41.8164632 66.9730323,42.316353 66.9730323,42.8690795 M68.9247378,36.7345962 C71.3000101,36.7345962 73.2214064,37.764635 74.689096,39.8245852 C75.2639125,40.8622206 75.5514903,41.8466373 75.5514903,42.778175 L75.5514903,43.4143792 C75.5514903,45.0578748 74.8100364,46.557417 73.3274253,47.9130059 C72.0186156,48.9732189 70.5057375,49.5034102 68.7885792,49.5034102 C66.3829552,49.5034102 64.4766076,48.5037578 63.0695789,46.5043257 C62.4341438,45.4972041 62.1164263,44.4066047 62.1164263,43.2325702 L62.1164263,43.0508461 C62.1164263,40.7486112 63.2358772,38.9157525 65.4752029,37.5525245 C66.5418351,37.0072249 67.6915953,36.7345962 68.9247378,36.7345962" id="Fill-21"></path><path d="M76.6517086,37.3480191 L80.9182375,37.3480191 L80.9182375,43.3234832 C80.9182375,44.4520655 81.3115375,45.1487878 82.0983493,45.4137773 C82.26469,45.4441213 82.4008486,45.4591871 82.5068675,45.4591871 L82.7792271,45.4591871 C83.5809605,45.4591871 84.1105462,44.9896837 84.3678148,44.0505494 C84.3979545,43.93694 84.4132151,43.8006257 84.4132151,43.641564 L84.4132151,37.3480191 L88.7251443,37.3480191 L88.7251443,49.0036137 L84.4132151,49.0036137 L84.4132151,47.413167 C83.3843105,48.6553587 82.2192897,49.2761999 80.9182375,49.2761999 L80.60052,49.2761999 C78.7319848,49.2761999 77.4761634,48.3372354 76.8332676,46.4589244 C76.7122,45.8908774 76.6517086,45.3759641 76.6517086,44.9138875 L76.6517086,37.3480191 Z" id="Fill-23"></path><path d="M98.4946255,42.3692194 C98.4946255,42.05882 98.4189159,41.7103527 98.2676662,41.3241147 C97.9953914,40.687953 97.4506723,40.3698722 96.6337207,40.3698722 C96.4748407,40.4002161 96.3234215,40.415282 96.1798445,40.415282 C95.2113889,40.5970485 94.7273731,41.2786625 94.7273731,42.4601239 C94.7575128,43.603772 94.8635317,44.2550421 95.0450906,44.4141037 C95.0450906,44.8002993 95.5291065,45.0427962 96.4975621,45.1410851 L96.7698369,45.1410851 C96.9891658,45.1410851 97.2615254,45.0956752 97.5868732,45.0048132 C98.1919566,44.6034669 98.4946255,43.8460567 98.4946255,42.7327525 L98.4946255,42.3692194 Z M97.9499487,37.0526644 C98.6761844,37.0526644 99.4024202,37.1889787 100.128656,37.4616073 C102.24666,38.5294593 103.305874,40.2714984 103.305874,42.6873002 L103.305874,42.823657 C103.305874,43.9521968 103.048605,44.967 102.534237,45.8681513 C101.422247,47.5647381 99.9697759,48.4128406 98.176908,48.4128406 L97.5868732,48.4128406 C96.6260904,48.4128406 95.7106654,48.0493499 94.8408527,47.3222837 L94.8408527,52.3434628 L90.3019219,52.3434628 L90.3019219,46.9587506 L90.3132826,37.3480403 L94.8635317,37.3480403 L94.8635317,38.1432637 L94.908932,38.1432637 C95.7787871,37.4161975 96.7925582,37.0526644 97.9499487,37.0526644 L97.9499487,37.0526644 Z" id="Fill-25"></path></g></g></g></g></svg> 