<?xml version="1.0" encoding="UTF-8"?> <svg xmlns="http://www.w3.org/2000/svg" xmlns:xlink="http://www.w3.org/1999/xlink" width="180px" height="102px" viewBox="0 0 180 102" version="1.1"><title>A0D1C68C-D628-4723-9258-10001DC32FF8@1x</title><defs><filter x="-1.5%" y="-24.6%" width="103.1%" height="149.2%" filterUnits="objectBoundingBox" id="filter-1"><feOffset dx="0" dy="5" in="SourceAlpha" result="shadowOffsetOuter1"></feOffset><feGaussianBlur stdDeviation="5" in="shadowOffsetOuter1" result="shadowBlurOuter1"></feGaussianBlur><feColorMatrix values="0 0 0 0 0.0305540393 0 0 0 0 0.136349255 0 0 0 0 0.20108961 0 0 0 0.08 0" type="matrix" in="shadowBlurOuter1" result="shadowMatrixOuter1"></feColorMatrix><feMerge><feMergeNode in="shadowMatrixOuter1"></feMergeNode><feMergeNode in="SourceGraphic"></feMergeNode></feMerge></filter></defs><g id="DT" stroke="none" stroke-width="1" fill="none" fill-rule="evenodd"><g id="header--white-bg" transform="translate(-870.000000, -14.000000)" filter="url(#filter-1)"><g id="Logo-color" transform="translate(880.000000, 19.046537)"><path d="M128.957541,15.2781915 C130.065198,15.5965995 131.230303,16.9955773 131.106938,17.8591165 C130.906889,19.2596661 127.938189,21.6344314 126.671123,22.5903756 C124.724729,24.0589029 122.251656,25.6221929 121.502144,25.6269736 L121.497285,25.6269736 C120.78907,25.6269736 120.529472,24.6359927 120.52271,23.7069645 L120.52225,23.6416064 L120.561118,23.5890187 C121.552173,22.2478022 123.115603,19.8028981 123.35452,18.7737371 C123.332657,18.5246821 122.929867,17.868023 122.075702,16.9770439 L122.0369,16.9366372 L122.025279,16.8818883 C121.869218,16.1452015 122.458467,15.203272 122.812805,15.0126988 L122.834996,15.0007797 L122.859551,14.9948202 C124.203695,14.6669819 127.338107,14.8126951 128.957541,15.2781915 Z" id="Combined-Shape" fill="#FF7300"></path><path d="M58.3784792,6.57321848e-05 C58.6444456,0.0151999555 58.9094928,0.0379901581 59.1731613,0.0701453001 L58.8136406,0.0320029838 C58.8473694,0.0350659469 58.8810792,0.0382674062 58.9147691,0.0416098899 L59.1731613,0.0701453001 C59.172505,0.0706998849 59.1718488,0.0712543982 59.1711924,0.0718088399 C59.6538053,0.128456808 60.1312488,0.217378072 60.6010547,0.34417129 C61.011658,0.490801357 61.4077516,0.66860423 61.7868407,0.883604905 C62.0573372,1.07601184 62.3104353,1.28688671 62.5463976,1.52055177 L62.439,1.42 C62.4588408,1.43493789 62.4764854,1.45189956 62.4940316,1.46898403 L62.5463976,1.52055177 C62.6417279,1.63718784 62.7326594,1.75696738 62.8208991,1.87851512 L62.7297465,1.75395527 C62.8840082,1.95818771 63.0281305,2.16934561 63.1636418,2.38629786 C62.0489597,3.90328709 60.9371007,5.43416 59.8551146,6.92429871 L59.8551146,6.92429871 L59.131602,7.92051871 C58.5623774,8.70396466 58.152562,9.5427489 57.7186514,10.4307154 C57.6201697,10.6322909 57.5216879,10.8338008 57.4213022,11.0345903 C55.5701079,14.7368194 54.0035915,18.6123327 52.6321346,22.8825486 C51.7361476,25.6725147 50.8721344,28.5210936 50.0366809,31.275892 C50.0276205,31.3057551 50.0184946,31.3357491 50.0094342,31.3656776 C50.9983223,29.8964954 52.0827377,28.398236 53.2987248,26.760223 C56.8917986,21.9201865 60.0297555,18.0615694 63.1741466,14.6170399 C64.1199653,13.580937 65.14864,12.5807222 66.1433714,11.6135139 L66.1433714,11.6135139 C66.4511597,11.3142287 66.7890177,11.0605895 67.1157145,10.8152674 C67.2524729,10.712646 67.3815496,10.6156566 67.5086567,10.5156548 C68.0021816,10.1273045 68.6096827,10.0798904 69.2193504,10.382188 C69.7575204,10.6489906 70.1595885,11.0241121 70.3822229,11.4669493 C70.5297486,11.7604714 70.7091167,11.9243251 71.2338931,11.9498658 C71.8365358,11.9792049 72.4333352,12.1941401 72.959753,12.5715537 C73.5975865,13.0287985 73.8264581,13.6106691 73.6399336,14.3011205 C71.9476889,20.563973 70.7016321,27.2482477 69.9335401,34.1811844 C74.7889531,30.8841363 80.4212558,27.7859786 87.1170301,24.7273762 C92.0710561,22.4644663 97.1444421,20.470913 102.196096,18.8020545 C104.529523,18.0311825 106.711813,17.3910267 108.867644,16.8449786 C110.731378,16.3729333 113.202745,15.7989869 115.792618,15.5504558 C116.787612,15.4548418 117.61499,15.4561516 118.396541,15.5547126 C118.991437,15.6296976 119.850132,15.810382 120.435376,16.5105259 L120.435376,16.5105259 L120.532479,16.6265725 L120.685783,17.626198 L120.668581,17.7146082 C120.65893,17.7640525 120.651051,17.8137587 120.642976,17.8635304 C120.62177,17.9947051 120.597806,18.1432998 120.547843,18.2979195 C120.502475,18.4381972 120.45829,18.5843033 120.41568,18.7254978 C120.288704,19.1453483 120.157461,19.579541 119.956624,20.0043032 C118.869976,22.3027737 117.298207,24.5163049 115.28524,26.5834679 C115.080004,26.7943428 114.836426,27.0035804 114.561465,27.2052868 C114.266479,27.4216628 113.973332,27.5060127 113.689836,27.4556516 C113.41737,27.4073861 113.193291,27.2458246 113.023705,26.9755511 C112.788662,26.601019 112.541145,26.0896147 112.71467,25.4543051 C112.82254,25.058751 112.896598,24.6584162 112.975055,24.2345708 C112.980505,24.2049698 112.985954,24.1754342 112.991403,24.1458331 C112.909532,24.1453092 112.830944,24.146226 112.753537,24.1500899 C111.243024,24.2241581 109.79462,24.4109329 108.448309,24.7051754 C108.076639,24.7864474 107.704378,24.8665405 107.332182,24.9466337 C105.931181,25.2481454 104.482383,25.5600045 103.087291,25.9308037 C101.042612,26.4742976 98.9391078,27.0931695 96.8354063,27.7701957 C91.0117207,29.6444934 85.3595247,31.8576316 80.0361265,34.3481816 C75.9680423,36.2514255 72.7182758,38.0155705 69.8091248,39.9002155 C69.1789729,40.30854 68.5519724,40.7467929 67.9455874,41.1706383 C67.7658911,41.2963119 67.5861947,41.4219199 67.4060387,41.5470041 C66.8024769,41.9661343 66.3578646,42.0018258 65.7072942,41.6834834 C65.1942699,41.4323327 64.7593088,41.0825555 64.3775936,40.614243 C64.1040113,40.2787424 64.0125545,39.8964171 64.1057839,39.4778764 C64.9992104,35.4640502 65.7004005,31.450093 66.1899204,27.5474018 C66.4575938,25.4133089 66.6844958,23.2379579 66.9039788,21.134121 C66.960179,20.5952112 67.0175611,20.0454958 67.0757966,19.4944707 C65.8626327,20.5773327 64.6610897,21.73387 63.4231741,23.0097284 C59.4775355,27.0764698 55.67916,31.7060244 51.8110594,37.1628371 C49.4356139,40.5137828 47.4714282,43.5745462 45.8061674,46.519918 C45.7716331,46.5810193 45.7349323,46.6417932 45.6981658,46.702567 C45.6236479,46.8255555 45.5533319,46.9419296 45.5175502,47.041735 C45.3863725,47.408081 45.0554082,47.8431905 44.2230404,47.8355282 C43.5806768,47.8296342 42.6562614,47.7242623 42.0463967,46.8811558 C41.2970819,45.8453804 40.6477589,44.8970329 40.2890227,43.7797236 C40.1852886,43.4566659 40.1625721,43.1087224 40.2250096,42.8000723 L40.2250096,42.8000723 L40.305502,42.4002614 C40.4951778,41.4558433 40.6913535,40.47927 40.953118,39.5213611 C41.9309105,35.9435613 43.2372381,32.3947731 44.3861919,29.3951764 C46.9410055,22.7251783 49.7680883,16.236847 52.7888519,10.1104083 C53.1934806,9.28976455 53.6176743,8.46473303 54.03655,7.65640122 C51.5927582,9.80791421 49.1219823,12.1056643 46.6693928,14.5082625 C40.4294577,20.6211449 34.5258706,27.1160907 28.6212987,34.3642919 C20.1407068,44.7746338 12.1942142,56.1561133 5.00235447,68.1926147 L5.00235447,68.1926147 L4.95908815,68.2658315 L4.95908815,68.2658315 L4.87314641,68.4093836 C4.83729905,68.4673414 4.80854238,68.5170476 4.78385629,68.5594846 C4.58347875,68.9049395 4.39189892,69.0445622 4.1313162,69.0794679 C3.96928089,69.1012103 3.7805242,69.0825459 3.54620329,69.0477057 L3.54620329,69.0477057 L3.42953524,69.0304821 C1.83852971,68.7993056 1.31414721,67.8992891 1.15434415,67.1849996 C1.01371221,66.5559114 0.855747481,65.8888396 0.657339578,65.0856159 C0.622739656,64.9452073 0.573630089,64.8008693 0.521763033,64.6480178 C0.496092123,64.5723124 0.470421213,64.4964761 0.446129048,64.4205087 L0.446129048,64.4205087 L0.433523383,64.3812153 L0.207737554,62.9089551 L0.211151588,62.8534858 C0.214565622,62.7985405 0.2200806,62.7433332 0.225726887,62.6880604 C0.234196318,62.6054787 0.242206167,62.5275466 0.237347734,62.4738456 C0.165062128,61.6697706 0.0930391399,60.9436931 0.0170112275,60.2538965 C-0.0402394976,59.7339131 0.046687062,59.2351483 0.282780649,58.7289176 C1.88271519,55.2992541 3.97367975,51.7428692 6.67529682,47.8564193 C9.85809573,43.2778152 13.567772,38.6615549 18.0163241,33.7438483 C25.3273467,25.661971 33.4138803,17.9996822 42.0511895,10.9699526 C46.4979689,7.35082913 50.5852242,4.34337376 54.5466855,1.7757431 C55.2721021,1.30546596 56.0525372,0.805718733 56.8441991,0.336882354 C56.9975024,0.246114479 57.1459472,0.153643887 57.2907154,0.0594050897 C57.5135348,0.038260714 57.7365288,0.0200502039 57.9600504,0.00955187392 C57.9365906,0.008722338 57.9129522,0.00694790738 57.8893137,0.00513640847 L57.9610498,0.00950498793 C58.0999606,0.00299498263 58.2390755,-0.000533726948 58.3784792,6.57321848e-05 L58.352,0 Z" id="Combined-Shape" fill="#1B5E87"></path><path d="M28.6688785,50.99501 L39.2135823,50.99501 C39.3423964,50.99501 40.0220518,53.6832061 41.2522859,59.0589433 C41.4865411,59.7952371 42.001929,61.8988776 42.7988433,65.3698647 L42.9394096,65.3698647 L46.3840386,50.99501 L57.1396903,50.99501 L57.1396903,75.4672997 L50.03955,75.4672997 L50.03955,59.8302738 C49.922291,59.8302738 49.5238339,61.2326571 48.8444411,64.0374892 C48.7505551,64.2829423 47.6960782,68.093032 45.6810759,75.4672997 L40.1274929,75.4672997 C40.0220518,75.4672997 39.6002873,73.9947121 38.8621337,71.0496678 L35.7690189,59.8302738 L35.6987029,59.8302738 L35.6987029,75.4672997 L28.5283122,75.4672997 L28.5283122,51.1352876 C28.5398017,51.0419002 28.5868104,50.99501 28.6688785,50.99501" id="Fill-15" fill="#1B5E87"></path><path d="M66.1371145,65.334756 L66.1371145,65.8957356 C66.1371145,67.6137108 66.605625,68.7824945 67.5431056,69.4018248 C68.0466757,69.542037 68.4685058,69.6121103 68.8084649,69.6121103 L69.2302294,69.6121103 C70.7298438,69.4604376 71.4797495,69.0862329 71.4797495,68.4902822 C71.7609478,68.2448291 71.9248871,67.2398336 71.9718957,65.4750337 C71.9718957,63.6518829 71.2219243,62.6000627 69.7223099,62.3195729 C69.4996098,62.3195729 69.2653545,62.2963243 69.0193471,62.2494996 C67.7539879,62.2494996 66.9103932,62.7403403 66.4886287,63.7220218 C66.2541108,64.3180379 66.1371145,64.8557688 66.1371145,65.334756 M66.9807092,57.1306106 C68.773274,57.1306106 70.3432045,57.6915901 71.6906975,58.8135492 L71.7609478,58.8135492 L71.7609478,57.5864146 L78.8083676,57.5864146 L78.8083676,72.4170079 C78.8083676,76.7527785 77.3027129,79.6509326 74.2917318,81.1119941 C72.6512228,81.6729736 71.0110421,81.9534634 69.3707957,81.9534634 C65.8089733,81.9534634 63.3603887,81.3689733 62.0246479,80.2004515 C60.6890383,79.0316677 60.0212008,77.5122554 60.0212008,75.642542 L66.7698269,75.642542 C66.9455184,76.6708516 67.4843449,77.1852029 68.3867003,77.1852029 C69.6168687,77.1852029 70.4867909,76.8258643 70.9964668,76.1071216 C71.5061427,75.3884443 71.7609478,74.6258239 71.7609478,73.8194567 L71.7609478,72.9779875 C70.4368278,74.0999465 69.0309023,74.6608605 67.5431056,74.6608605 L66.629195,74.6608605 C63.8524692,74.6608605 61.6028833,73.3521266 59.8805688,70.7340694 C59.0836545,69.3434741 58.6855256,67.777499 58.6855256,66.0360132 L58.6855256,65.8255967 C58.6855256,62.0976959 60.3257063,59.4094998 63.6063961,57.7616634 C64.7311234,57.3409615 65.8559163,57.1306106 66.9807092,57.1306106" id="Fill-17" fill="#FF7300"></path><path d="M93.2539927,57.3059445 L95.2926306,57.7266464 L95.2926306,64.17778 L94.2381536,64.17778 C91.5198603,64.17778 89.7390476,64.9258618 88.8954529,66.4216326 C88.3798025,67.1579264 88.1222399,68.4669878 88.1222399,70.3484238 L88.1222399,75.4672473 L81.3032977,75.4672473 L81.3032977,57.5863688 L87.9816079,57.5863688 L87.9816079,61.2326702 L89.0360849,59.4796583 C90.1608778,58.0306468 91.5668689,57.3059445 93.2539927,57.3059445" id="Fill-19" fill="#FF7300"></path><path d="M103.727744,66.1061062 L103.727744,67.0177143 C103.727744,69.1563914 104.407136,70.3719998 105.766382,70.6640157 L106.750543,70.734089 C107.992266,70.734089 108.78918,70.2432483 109.140695,69.2615669 C109.421893,68.4200976 109.562459,67.4853063 109.562459,66.4567347 C109.562459,63.6518371 108.601606,62.2494538 106.680292,62.2494538 L106.469344,62.2494538 C105.332734,62.2494538 104.559521,62.7638706 104.149508,63.7921147 C103.868376,64.4817803 103.727744,65.2531763 103.727744,66.1061062 M106.750543,56.6397895 C110.429361,56.6397895 113.405217,58.2292752 115.678373,61.40805 C116.568648,63.0092582 117.014048,64.5283431 117.014048,65.9658285 L117.014048,66.9475754 C117.014048,69.4837059 115.865685,71.7976973 113.569419,73.8895497 C111.542336,75.5255981 109.199193,76.3437533 106.53966,76.3437533 C102.813833,76.3437533 99.8612844,74.8011578 97.6820802,71.7157704 C96.6979192,70.1616489 96.2058387,68.4787103 96.2058387,66.6670202 L96.2058387,66.3865959 C96.2058387,62.8339439 97.9396428,60.0056012 101.407907,57.9019607 C103.059906,57.0604914 104.840653,56.6397895 106.750543,56.6397895" id="Fill-21" fill="#FF7300"></path><path d="M118.718065,57.5863819 L125.326059,57.5863819 L125.326059,66.8073109 C125.326059,68.5488622 125.935201,69.6239966 127.153815,70.0329104 C127.411443,70.0797351 127.622325,70.1029838 127.786527,70.1029838 L128.208357,70.1029838 C129.450081,70.1029838 130.270302,69.378478 130.66876,67.92927 C130.71544,67.7539557 130.739076,67.5436047 130.739076,67.2981516 L130.739076,57.5863819 L137.417386,57.5863819 L137.417386,75.5725014 L130.739076,75.5725014 L130.739076,73.1182323 C129.14551,75.0350979 127.341127,75.9931378 125.326059,75.9931378 L124.833978,75.9931378 C121.939994,75.9931378 119.994979,74.5441917 118.999263,71.6457102 C118.811754,70.7691388 118.718065,69.9745597 118.718065,69.2615145 L118.718065,57.5863819 Z" id="Fill-23" fill="#FF7300"></path><path d="M152.548345,65.334756 C152.548345,64.8557688 152.431086,64.3180379 152.196831,63.7220218 C151.775132,62.7403403 150.931472,62.2494996 149.666178,62.2494996 C149.420105,62.2963243 149.185588,62.3195729 148.963216,62.3195729 C147.463273,62.6000627 146.71363,63.6518829 146.71363,65.4750337 C146.76031,67.2398336 146.924512,68.2448291 147.20571,68.4902822 C147.20571,69.0862329 147.955353,69.4604376 149.455296,69.6121103 L149.876995,69.6121103 C150.216691,69.6121103 150.638522,69.542037 151.14242,69.4018248 C152.079572,68.7824945 152.548345,67.6137108 152.548345,65.8957356 L152.548345,65.334756 Z M151.704751,57.1306106 C152.829544,57.1306106 153.954337,57.3409615 155.079129,57.7616634 C158.359497,59.4094998 160,62.0976959 160,65.8255967 L160,66.0360132 C160,67.777499 159.601543,69.3434741 158.804891,70.7340694 C157.082642,73.3521266 154.833056,74.6608605 152.056265,74.6608605 L151.14242,74.6608605 C149.654361,74.6608605 148.236552,74.0999465 146.889387,72.9779875 L146.889387,80.7263289 L139.859497,80.7263289 L139.859497,72.4170079 L139.877092,57.5864146 L146.924512,57.5864146 L146.924512,58.8135492 L146.994828,58.8135492 C148.342058,57.6915901 149.912186,57.1306106 151.704751,57.1306106 L151.704751,57.1306106 Z" id="Fill-25" fill="#FF7300"></path></g></g></g></svg> 